<?xml version="1.0" standalone="no"?>
<!DOCTYPE svg PUBLIC "-//W3C//DTD SVG 20010904//EN"
 "http://www.w3.org/TR/2001/REC-SVG-20010904/DTD/svg10.dtd">
<svg version="1.0" xmlns="http://www.w3.org/2000/svg"
 width="225.000000pt" height="225.000000pt" viewBox="0 0 225.000000 225.000000"
 preserveAspectRatio="xMidYMid meet">

<g transform="translate(0.000000,225.000000) scale(0.100000,-0.100000)"
fill="#000000" stroke="none">
<path d="M1015 1390 c-11 -4 -122 -111 -247 -237 -240 -241 -247 -251 -212
-301 11 -16 25 -22 52 -22 35 0 49 12 234 197 l198 198 198 -198 c185 -185
199 -197 234 -197 27 0 41 6 52 22 35 50 28 60 -216 304 -128 128 -242 235
-253 237 -11 3 -29 2 -40 -3z m269 -259 c208 -209 227 -231 217 -250 -7 -12
-19 -21 -29 -21 -9 0 -110 93 -224 207 l-208 208 -208 -208 c-114 -114 -215
-207 -224 -207 -10 0 -22 9 -29 21 -10 19 9 41 217 250 126 126 235 229 244
229 9 0 118 -103 244 -229z"/>
</g>
</svg>
